<?xml version="1.0" encoding="utf-8"?>
<!-- Generator: Adobe Illustrator 26.0.2, SVG Export Plug-In . SVG Version: 6.00 Build 0)  -->
<svg version="1.1" id="Warstwa_1" xmlns="http://www.w3.org/2000/svg" xmlns:xlink="http://www.w3.org/1999/xlink" x="0px" y="0px"
	 width="234.6px" height="212px" viewBox="0 0 234.6 212" style="enable-background:new 0 0 234.6 212;" xml:space="preserve">

<path fill="#cfcfcf" d="M232.1,3.2l-15.4,5.6l-14.5-7.6c-0.8-0.4-1.7,0.4-1.4,1.2l4.4,11.9c-11.3,0.7-22.1,5.5-30.3,13.7l-13.7-13.7
	c-0.8-0.8-2-0.8-2.8,0l-12.1,12.1c-14.5-7.9-31.1-12.3-48.8-12.1C44.4,15,1,58.2,0,111.2C-1.1,167.3,44.6,213,100.7,212
	c52.4-1,95.4-43.5,96.9-95.9c0.6-20.5-5.1-39.7-15.2-55.7l10.9-10.9c0.8-0.8,0.8-2,0-2.8L179.8,33c6.7-6.7,15.5-10.7,24.8-11.6
	l-5.7,10.9c-0.4,0.8,0.4,1.7,1.2,1.4l15.4-5.6l14.5,7.6c0.8,0.4,1.7-0.4,1.4-1.2l-5.6-15.4l7.6-14.5C233.8,3.8,233,2.8,232.1,3.2z
	 M40.1,97.9c-1.1,4.3-1.7,8.8-1.9,13.3c0,1.1-0.9,1.9-2,1.9h-9.8c-1.1,0-2-0.9-2-2c0.2-5.6,0.9-11.2,2.3-16.6
	c5-19.4,17.8-36.1,35.3-46.1c1-0.6,2.2-0.2,2.7,0.8l4.6,8.7c0.5,1,0.2,2.1-0.8,2.7C54.5,68.7,44.2,82.2,40.1,97.9z M96.9,52.5
	c-3.7,0.1-7.4,0.6-11.1,1.4c-1.1,0.2-2.1-0.4-2.4-1.5L81,42.9c-0.3-1.1,0.4-2.2,1.5-2.4c4.7-1.1,9.5-1.6,14.3-1.8c1.1,0,2,0.9,2,2
	v9.8C98.8,51.6,98,52.5,96.9,52.5z"/>
</svg>
