<?xml version="1.0" encoding="utf-8"?>
<!-- Generator: Adobe Illustrator 26.0.2, SVG Export Plug-In . SVG Version: 6.00 Build 0)  -->
<svg version="1.1" id="Warstwa_1" xmlns="http://www.w3.org/2000/svg" xmlns:xlink="http://www.w3.org/1999/xlink" x="0px" y="0px"
	 width="209.7px" height="209.7px" viewBox="0 0 209.7 209.7" style="enable-background:new 0 0 209.7 209.7;" xml:space="preserve"
	>
<path fill="#cfcfcf" d="M105.8,0C47.1-0.5-0.5,47.1,0,105.8c0.5,56.9,47,103.5,103.9,103.9c58.6,0.5,106.3-47.1,105.8-105.8
	C209.2,47,162.7,0.5,105.8,0z M140.5,60c10.9-1.4,20,7.8,18.6,18.6c-0.9,7.4-6.9,13.4-14.3,14.3c-10.9,1.4-20-7.8-18.6-18.6
	C127.2,66.9,133.1,61,140.5,60z M64.9,60c10.9-1.4,20,7.8,18.6,18.6C82.5,86.1,76.6,92,69.2,93c-10.9,1.4-20-7.8-18.6-18.6
	C51.5,66.9,57.5,61,64.9,60z M104.9,180.1c-29.8,0-56.6-17.4-68.7-44.5c-0.5-1,0-2.2,1.1-2.6l9.1-3.8c1-0.4,2.1,0.1,2.6,1
	c10,22,31.7,36.1,56,36.1c24.3,0,46-14.1,56-36.1c0.5-1,1.6-1.5,2.6-1l9.1,3.8c1,0.4,1.5,1.6,1.1,2.6
	C161.5,162.7,134.7,180.1,104.9,180.1z"/>
</svg>
