<?xml version="1.0" encoding="utf-8"?>
<!-- Generator: Adobe Illustrator 26.0.2, SVG Export Plug-In . SVG Version: 6.00 Build 0)  -->
<svg version="1.1" id="Warstwa_1" xmlns="http://www.w3.org/2000/svg" xmlns:xlink="http://www.w3.org/1999/xlink" x="0px" y="0px"
	 width="131.8px" height="205.7px" viewBox="0 0 131.8 205.7" style="enable-background:new 0 0 131.8 205.7;" xml:space="preserve"
	>
<g>
	<path fill="#cfcfcf" d="M42,143.1v-3.3c0.1-11.4,1.1-20.5,3.1-27.3c2-6.8,4.9-12.3,8.8-16.4c3.8-4.2,8.5-8,13.9-11.4
		c4-2.6,7.7-5.3,10.9-8.1c3.2-2.8,5.7-5.9,7.6-9.3c1.9-3.4,2.8-7.3,2.8-11.5c0-4.5-1.1-8.4-3.2-11.8c-2.2-3.4-5-6-8.7-7.8
		c-3.6-1.8-7.6-2.7-12-2.7c-4.2,0-8.3,0.9-12,2.8c-3.8,1.9-6.9,4.6-9.3,8.2c-2.4,3.6-3.7,8.1-3.9,13.5H0c0.3-13,3.5-23.8,9.4-32.3
		C15.3,16.9,23.2,10.5,33,6.3C42.8,2.1,53.6,0,65.4,0c13,0,24.5,2.1,34.4,6.4c10,4.3,17.8,10.5,23.5,18.5c5.7,8.1,8.5,17.8,8.5,29.3
		c0,7.6-1.3,14.4-3.8,20.3c-2.5,5.9-6,11.1-10.5,15.7c-4.5,4.5-9.8,8.6-16,12.3c-5.2,3.1-9.4,6.3-12.7,9.6
		c-3.3,3.3-5.7,7.2-7.3,11.5c-1.6,4.4-2.4,9.8-2.5,16.1v3.3H42z M61.4,205.7c-6.5,0-12.1-2.3-16.7-6.9c-4.6-4.6-6.9-10.1-6.8-16.6
		c-0.1-6.4,2.2-11.9,6.8-16.4c4.6-4.6,10.2-6.9,16.7-6.9c6.2,0,11.6,2.3,16.3,6.9c4.7,4.6,7.1,10,7.1,16.4
		c-0.1,4.3-1.2,8.2-3.4,11.8c-2.2,3.6-5,6.4-8.6,8.5C69.4,204.6,65.5,205.7,61.4,205.7z"/>
</g>
</svg>
