<?xml version="1.0" encoding="utf-8"?>
<!-- Generator: Adobe Illustrator 26.0.2, SVG Export Plug-In . SVG Version: 6.00 Build 0)  -->
<svg version="1.1" id="Warstwa_1" xmlns="http://www.w3.org/2000/svg" xmlns:xlink="http://www.w3.org/1999/xlink" x="0px" y="0px"
	 width="190px" height="209.7px" viewBox="0 0 190 209.7" style="enable-background:new 0 0 190 209.7;" xml:space="preserve">
<path fill="#cfcfcf" d="M69.8,11.8V2c0-1.1,0.9-2,2-2h38.5c1.1,0,2,0.9,2,2v9.8c0,1.1-0.9,2-2,2H71.8C70.7,13.8,69.8,12.9,69.8,11.8z
	 M181.6,58.1l6.9-6.9c0.8-0.8,0.8-2,0-2.8l-27.2-27.2c-0.8-0.8-2-0.8-2.8,0l-6.9,6.9c-0.8,0.8-0.8,2,0,2.8l27.2,27.2
	C179.6,58.9,180.9,58.9,181.6,58.1z M182.1,116.9c1,51.6-41.1,93.7-92.8,92.8C40.6,208.8,0.9,169.1,0,120.4
	c-1-51.6,41.1-93.7,92.8-92.8C141.4,28.6,181.2,68.3,182.1,116.9z M168.3,118.7c0-42-33.5-76.1-75.2-77.2c-1.1,0-2,0.9-2,2v75.2
	l53.2,53.2c0.8,0.8,2.1,0.8,2.8,0C160.2,158,168.3,139.3,168.3,118.7z"/>
</svg>
