<?xml version="1.0" encoding="utf-8"?>
<!-- Generator: Adobe Illustrator 26.0.2, SVG Export Plug-In . SVG Version: 6.00 Build 0)  -->
<svg version="1.1" id="Warstwa_1" xmlns="http://www.w3.org/2000/svg" xmlns:xlink="http://www.w3.org/1999/xlink" x="0px" y="0px"
	 width="199.5px" height="205.7px" viewBox="0 0 199.5 205.7" style="enable-background:new 0 0 199.5 205.7;" xml:space="preserve"
	>
<path fill="#cfcfcf" d="M146.7,64.1c17.5-22.4,35-42.2,52.5-55.9l0,0c0.6-0.4,0.3-0.8,0.1-1c-60.5-24.5-121,25.4-181.5,0.3V2.2
	c0-1.2-1-2.2-2.2-2.2H2.2C1,0,0,1,0,2.2v203.5h17.7v-72.1c59.7,24.8,119.4-23.5,179.2-1.2c1,0.4,1.9-0.7,1.3-1.6
	C181,103.8,163.9,82.7,146.7,64.1z"/>
</svg>
