<?xml version="1.0" encoding="utf-8"?>
<!-- Generator: Adobe Illustrator 26.0.2, SVG Export Plug-In . SVG Version: 6.00 Build 0)  -->
<svg version="1.1" id="Warstwa_1" xmlns="http://www.w3.org/2000/svg" xmlns:xlink="http://www.w3.org/1999/xlink" x="0px" y="0px"
	 width="208.5px" height="205px" viewBox="0 0 208.5 205" style="enable-background:new 0 0 208.5 205;" xml:space="preserve">
<path fill="#cfcfcf" d="M104.3,0C46.6,0,0,47,0,105.1c0,46.4,29.8,85.7,71.2,99.6c0.1,0,0.2,0.1,0.3,0.1c5.1,0.9,6.9-2.3,6.9-5.1
	c0-2.2-0.1-9.3-0.2-17.1c0-1.2-1.1-2.2-2.4-2c-27,4.8-32.7-13-32.7-13c-4.3-11.3-10.6-14.8-11.5-15.3c-0.1,0-0.2-0.1-0.2-0.1
	c-8.7-5.9-0.4-6.3,0.7-6.3c0.1,0,0.1,0,0.2,0c10.5,0.8,16,10.8,16,10.8c8.8,15.2,22.8,11.9,29.4,9.2c0.6-0.3,1.1-0.9,1.2-1.6
	c0.7-4.3,2.2-7.8,4-10.3c0.9-1.2,0.2-3-1.3-3.2c-21.9-3-43.7-13.2-43.7-51.4c0-11,3.8-20.1,9.9-27.3c0.5-0.5,0.6-1.3,0.4-2
	c-1.3-3.7-3.5-13.3,1-25.7c0.3-0.7,1-1.2,1.7-1.3c3.1-0.2,11.6,0.4,26.6,10.5c0.5,0.3,1.1,0.4,1.6,0.3c8.2-2.1,16.7-3.2,25.2-3.3
	c8.5,0,17.2,1.1,25.2,3.2c0.6,0.1,1.1,0,1.6-0.3c15-10.1,23.5-10.7,26.6-10.5c0.8,0.1,1.5,0.6,1.7,1.3c4.6,12.4,2.3,21.9,1,25.7
	c-0.2,0.7-0.1,1.4,0.4,2c6.3,7.2,9.9,16.3,9.9,27.3c0,38.2-21.8,48.2-43.9,51.4c-1.5,0.2-2.3,1.9-1.4,3.1c2.7,3.6,4.7,9.1,4.7,16.8
	c0,14.1-0.2,25.4-0.2,28.9c0,2.8,1.9,6,6.9,5.1c0.1,0,0.2-0.1,0.3-0.1c41.4-14,71.2-53.3,71.2-99.7C208.6,47,161.8,0,104.3,0z"/>
</svg>
