<?xml version="1.0" encoding="utf-8"?>
<!-- Generator: Adobe Illustrator 26.0.2, SVG Export Plug-In . SVG Version: 6.00 Build 0)  -->
<svg version="1.1" id="Warstwa_1" xmlns="http://www.w3.org/2000/svg" xmlns:xlink="http://www.w3.org/1999/xlink" x="0px" y="0px"
	 width="209.7px" height="209.7px" viewBox="0 0 209.7 209.7" style="enable-background:new 0 0 209.7 209.7;" xml:space="preserve"
	>
<path fill="#cfcfcf" d="M105.8,0C47.1-0.5-0.5,47.1,0,105.8c0.5,56.9,47,103.5,103.9,103.9c58.6,0.5,106.3-47.1,105.8-105.8
	C209.2,47,162.7,0.5,105.8,0z M48.9,65.3l6.9-6.9c0.8-0.8,2-0.8,2.8,0l6.9,6.9c0.8,0.8,2,0.8,2.8,0l6.9-6.9c0.8-0.8,2-0.8,2.8,0
	l6.9,6.9c0.8,0.8,0.8,2,0,2.8l-6.9,6.9c-0.8,0.8-0.8,2,0,2.8l6.9,6.9c0.8,0.8,0.8,2,0,2.8l-6.9,6.9c-0.8,0.8-2,0.8-2.8,0l-6.9-6.9
	c-0.8-0.8-2-0.8-2.8,0l-6.9,6.9c-0.8,0.8-2,0.8-2.8,0l-6.9-6.9c-0.8-0.8-0.8-2,0-2.8l6.9-6.9c0.8-0.8,0.8-2,0-2.8l-6.9-6.9
	C48.1,67.4,48.1,66.1,48.9,65.3z M152.4,167c-0.8,0.7-2,0.7-2.8-0.1c-11.6-12.4-27.8-19.4-44.8-19.4c-17,0-33.2,7.1-44.8,19.4
	c-0.7,0.8-2,0.8-2.8,0.1l-7.4-6.5c-0.8-0.7-0.9-2-0.2-2.8c14.2-15.3,34.2-24,55.1-24s40.9,8.7,55.1,24c0.8,0.8,0.7,2.1-0.2,2.8
	L152.4,167z M160.8,87.7l-6.9,6.9c-0.8,0.8-2,0.8-2.8,0l-6.9-6.9c-0.8-0.8-2-0.8-2.8,0l-6.9,6.9c-0.8,0.8-2,0.8-2.8,0l-6.9-6.9
	c-0.8-0.8-0.8-2,0-2.8l6.9-6.9c0.8-0.8,0.8-2,0-2.8l-6.9-6.9c-0.8-0.8-0.8-2,0-2.8l6.9-6.9c0.8-0.8,2-0.8,2.8,0l6.9,6.9
	c0.8,0.8,2,0.8,2.8,0l6.9-6.9c0.8-0.8,2-0.8,2.8,0l6.9,6.9c0.8,0.8,0.8,2,0,2.8l-6.9,6.9c-0.8,0.8-0.8,2,0,2.8l6.9,6.9
	C161.6,85.6,161.6,86.9,160.8,87.7z"/>
</svg>
