<?xml version="1.0" encoding="utf-8"?>
<!-- Generator: Adobe Illustrator 26.0.2, SVG Export Plug-In . SVG Version: 6.00 Build 0)  -->
<svg version="1.1" id="Warstwa_1" xmlns="http://www.w3.org/2000/svg" xmlns:xlink="http://www.w3.org/1999/xlink" x="0px" y="0px"
	 width="209.7px" height="209.7px" viewBox="0 0 209.7 209.7" style="enable-background:new 0 0 209.7 209.7;" xml:space="preserve"
	>
<g>
	<path fill="#cfcfcf" d="M106.8,133c-12.1-1.2-22.3,8.9-21.1,21.1c0.9,9,8.2,16.2,17.1,17.1c12.1,1.2,22.3-8.9,21.1-21.1
		C123.1,141.2,115.8,133.9,106.8,133z"/>
	<path fill="#cfcfcf" d="M105.8,0C47.1-0.5-0.5,47.1,0,105.8c0.5,56.9,47,103.5,103.9,103.9c58.6,0.5,106.3-47.1,105.8-105.8
		C209.2,47,162.7,0.5,105.8,0z M50.6,78.7c-1.4-10.9,7.8-20,18.6-18.6c7.4,0.9,13.4,6.9,14.3,14.3c1.4,10.9-7.8,20-18.6,18.6
		C57.5,92,51.5,86.1,50.6,78.7z M108.4,185c-21,2.2-38.6-15.4-36.4-36.4c1.6-15.3,13.9-27.6,29.2-29.2c21-2.2,38.6,15.4,36.4,36.4
		C136.1,171,123.7,183.3,108.4,185z M144.9,93c-10.9,1.4-20-7.8-18.6-18.6c0.9-7.4,6.9-13.4,14.3-14.3c10.9-1.4,20,7.8,18.6,18.6
		C158.2,86.1,152.3,92,144.9,93z"/>
</g>
</svg>
